<svg xmlns="http://www.w3.org/2000/svg" viewBox="0 0 250 59.95"><defs><style>.cls-1{isolation:isolate;}.cls-2{fill:#001722;mix-blend-mode:multiply;}</style></defs><title>catalina-logo-fpo</title><g class="cls-1"><g id="Layer_1" data-name="Layer 1"><path class="cls-2" d="M74.73,107.29V79.13C74.73,68,82.2,63,92.31,63s15.85,6.38,15.85,15.9v6h-12V78.63c0-2.81-1.28-5-4.37-5s-4.46,2.15-4.46,5v28.49c0,2.81,1.18,5.13,4.37,5.13s4.46-2.07,4.46-5V101h12v6.13c0,9.19-5.92,15.82-16.39,15.82C80.56,122.93,74.73,118.21,74.73,107.29Z" transform="translate(-74.73 -62.99)"/><path class="cls-2" d="M110.35,112.42v-.75c0-9.36,10-15.07,19.31-17.14V90.31a3.25,3.25,0,0,0-3.55-3.48c-3.19,0-3.55,2-3.55,3.31V94h-11.2V90.64c0-7.45,6.38-12.59,15.21-12.59,9.2,0,15.21,3.89,15.21,12.83v18.8c0,5.71.46,11.67.46,12.25H131s-.37-3.15-.45-4.56h-.37a10.42,10.42,0,0,1-9.11,5.47C114.81,122.85,110.35,119,110.35,112.42Zm19.31-2.73v-7.54c-4.65,1.24-7.29,3.89-7.29,7.62v1a3.17,3.17,0,0,0,3.28,3.39C128.2,114.16,129.66,111.92,129.66,109.69Z" transform="translate(-74.73 -62.99)"/><path class="cls-2" d="M148.38,112.5V88.57h-4.83V79.63l4.83-.42V70.11l12-3.64V79.21h7.47v9.36h-7.47v21.12c0,1.66.45,3,3,3a12.55,12.55,0,0,0,3.73-.5v9.44a25.84,25.84,0,0,1-7.47,1.08C151,122.69,148.38,118.38,148.38,112.5Z" transform="translate(-74.73 -62.99)"/><path class="cls-2" d="M169.7,112.42v-.75c0-9.36,10-15.07,19.31-17.14V90.31a3.25,3.25,0,0,0-3.55-3.48c-3.19,0-3.55,2-3.55,3.31V94H170.7V90.64c0-7.45,6.38-12.59,15.21-12.59,9.2,0,15.21,3.89,15.21,12.83v18.8c0,5.71.46,11.67.46,12.25h-11.2s-.37-3.15-.45-4.56h-.37a10.42,10.42,0,0,1-9.11,5.47C174.16,122.85,169.7,119,169.7,112.42ZM189,109.69v-7.54c-4.65,1.24-7.29,3.89-7.29,7.62v1a3.17,3.17,0,0,0,3.28,3.39C187.55,114.16,189,111.92,189,109.69Z" transform="translate(-74.73 -62.99)"/><path class="cls-2" d="M206.68,64H218.8v58H206.68Z" transform="translate(-74.73 -62.99)"/><path class="cls-2" d="M225.19,79.05H237.3v42.89H225.19Z" transform="translate(-74.73 -62.99)"/><path class="cls-2" d="M243.67,79.05h11.75v5h.18a10.66,10.66,0,0,1,9.93-6c6.47,0,9.57,4.47,9.57,9.52v34.36h-12V91.55c0-1.49-.36-3.89-3.64-3.89-2.92,0-3.64,2.65-3.64,4.39v29.89H243.67Z" transform="translate(-74.73 -62.99)"/><path class="cls-2" d="M278.06,112.42v-.75c0-9.36,10-15.07,19.31-17.14V90.31a3.25,3.25,0,0,0-3.55-3.48c-3.19,0-3.55,2-3.55,3.31V94h-11.2V90.64c0-7.45,6.38-12.59,15.21-12.59,9.2,0,15.21,3.89,15.21,12.83v18.8c0,5.71.46,11.67.46,12.25h-11.2s-.37-3.15-.45-4.56h-.37a10.42,10.42,0,0,1-9.11,5.47C282.53,122.85,278.06,119,278.06,112.42Zm19.31-2.73v-7.54c-4.65,1.24-7.29,3.89-7.29,7.62v1a3.17,3.17,0,0,0,3.28,3.39C295.91,114.16,297.37,111.92,297.37,109.69Z" transform="translate(-74.73 -62.99)"/><circle class="cls-2" cx="156.51" cy="6.8" r="6.26"/><circle class="cls-2" cx="243.74" cy="52.96" r="6.26"/></g></g></svg>